<svg height="512pt" viewBox="0 0 512 512" width="512pt" xmlns="http://www.w3.org/2000/svg"><path d="m512 256c0 141.386719-114.613281 256-256 256s-256-114.613281-256-256 114.613281-256 256-256 256 114.613281 256 256zm0 0" fill="#5a54e0"/><path d="m512 256c0-15.332031-1.351562-30.347656-3.933594-44.9375l-120.566406-120.5625-263 331 86.566406 86.5625c14.585938 2.585938 29.601563 3.9375 44.933594 3.9375 141.386719 0 256-114.613281 256-256zm0 0" fill="#3a41cc"/><path d="m208.933594 90.5-84.433594 84.433594v246.566406h263v-331zm0 0" fill="#ffda00"/><path d="m255.644531 90.5h131.855469v331h-131.855469zm0 0" fill="#ffc200"/><path d="m208.933594 174.929688v-84.429688l-84.433594 84.433594zm0 0" fill="#fff"/><path d="m168.847656 218.171875v51.828125h9.152344l10-14h45.5v123.5h45v-123.5h45.5l10 14h9.152344v-51.828125zm0 0" fill="#333940"/><path d="m255.644531 218.171875v161.328125h22.855469v-123.5h45.5l10 14h9.152344v-51.828125zm0 0" fill="#23272b"/></svg>