<svg height="464pt" viewBox="0 -81 464 464" width="464pt" xmlns="http://www.w3.org/2000/svg"><path d="m133.441406 161.28125h-125.441406c-4.417969 0-8 3.582031-8 8v125.4375c0 4.417969 3.582031 8 8 8h125.441406c4.417969 0 8-3.582031 8-8v-125.4375c0-4.417969-3.582031-8-8-8zm0 0" fill="#37474f"/><path d="m294.71875 161.28125h-125.4375c-4.417969 0-8 3.582031-8 8v125.4375c0 4.417969 3.582031 8 8 8h125.4375c4.421875 0 8-3.582031 8-8v-125.4375c0-4.417969-3.578125-8-8-8zm0 0" fill="#37474f"/><path d="m456 161.28125h-125.4375c-4.421875 0-8 3.582031-8 8v125.4375c0 4.417969 3.578125 8 8 8h125.4375c4.421875 0 8-3.582031 8-8v-125.4375c0-4.417969-3.578125-8-8-8zm0 0" fill="#263238"/><path d="m294.71875 0h-125.4375c-4.417969 0-8 3.582031-8 8v125.4375c0 4.417969 3.582031 8 8 8h125.4375c4.421875 0 8-3.582031 8-8v-125.4375c0-4.417969-3.578125-8-8-8zm0 0" fill="#37474f"/><g fill="#faa629"><path d="m249.101562 101.527344c-3.335937 0-6.320312-2.070313-7.492187-5.191406l-9.609375-25.636719-9.613281 25.636719c-1.171875 3.121093-4.15625 5.191406-7.492188 5.191406-3.335937 0-6.320312-2.070313-7.492187-5.191406l-17.105469-45.617188c-1.550781-4.136719.546875-8.746094 4.683594-10.300781 4.144531-1.523438 8.746093.550781 10.300781 4.683593l9.613281 25.640626 9.613281-25.640626c1.171876-3.121093 4.15625-5.191406 7.492188-5.191406s6.320312 2.070313 7.492188 5.191406l9.609374 25.640626 9.617188-25.640626c1.554688-4.144531 6.171875-6.210937 10.304688-4.683593 4.132812 1.554687 6.226562 6.164062 4.679687 10.300781l-17.109375 45.617188c-1.171875 3.121093-4.15625 5.191406-7.492188 5.191406zm0 0"/><path d="m249.101562 262.808594h-34.207031c-4.417969 0-8-3.582032-8-8 0-4.417969 3.582031-8 8-8h24.894531l-29.332031-19.554688c-2.226562-1.484375-3.5625-3.980468-3.5625-6.65625v-11.40625c0-4.417968 3.582031-8 8-8h34.207031c4.421876 0 8 3.582032 8 8 0 4.417969-3.578124 8-8 8h-24.894531l29.332031 19.554688c2.226563 1.484375 3.5625 3.980468 3.5625 6.65625v11.40625c0 4.417968-3.578124 8-8 8zm0 0"/><path d="m47.90625 262.808594c-1.199219 0-2.421875-.269532-3.570312-.84375-3.949219-1.976563-5.554688-6.78125-3.578126-10.734375l22.804688-45.617188c2.710938-5.421875 11.601562-5.421875 14.3125 0l22.808594 45.617188c1.976562 3.953125.375 8.757812-3.578125 10.734375-3.960938 1.980468-8.753907.375-10.734375-3.578125l-15.652344-31.304688-15.648438 31.304688c-1.402343 2.800781-4.226562 4.421875-7.164062 4.421875zm0 0"/></g><path d="m400.085938 262.808594h-29.609376c-4.421874 0-8-3.582032-8-8v-45.617188c0-4.417968 3.578126-8 8-8h29.609376c13.234374 0 24 10.765625 24 24v13.617188c0 13.234375-10.765626 24-24 24zm-21.609376-16h21.609376c4.414062 0 8-3.589844 8-8v-13.617188c0-4.410156-3.585938-8-8-8h-21.609376zm0 0" fill="#f78c1e"/><path d="m294.71875 161.28125h-62.71875v141.4375h62.71875c4.421875 0 8-3.582031 8-8v-125.4375c0-4.417969-3.578125-8-8-8zm0 0" fill="#263238"/><path d="m294.71875 0h-62.71875v141.4375h62.71875c4.421875 0 8-3.582031 8-8v-125.4375c0-4.417969-3.578125-8-8-8zm0 0" fill="#263238"/><path d="m269.023438 40.417969c-4.132813-1.527344-8.75.539062-10.304688 4.683593l-9.617188 25.640626-9.609374-25.640626c-1.171876-3.121093-4.15625-5.191406-7.492188-5.191406v30.789063l9.609375 25.636719c1.171875 3.121093 4.15625 5.191406 7.492187 5.191406 3.335938 0 6.320313-2.070313 7.492188-5.191406l17.109375-45.617188c1.546875-4.136719-.546875-8.746094-4.679687-10.300781zm0 0" fill="#f78c1e"/><path d="m249.101562 217.191406c4.421876 0 8-3.582031 8-8 0-4.417968-3.578124-8-8-8h-17.101562v16zm0 0" fill="#f78c1e"/><path d="m253.539062 236.746094-21.539062-14.359375v19.230469l7.789062 5.191406h-7.789062v16h17.101562c4.421876 0 8-3.582032 8-8v-11.40625c0-2.675782-1.335937-5.171875-3.5625-6.65625zm0 0" fill="#f78c1e"/></svg>