<svg height="512pt" viewBox="0 -90 512 512" width="512pt" xmlns="http://www.w3.org/2000/svg" xmlns:xlink="http://www.w3.org/1999/xlink"><linearGradient id="a" gradientUnits="userSpaceOnUse" x1="0" x2="512" y1="166" y2="166"><stop offset="0" stop-color="#00f2fe"/><stop offset=".0208" stop-color="#03effe"/><stop offset=".2931" stop-color="#24d2fe"/><stop offset=".5538" stop-color="#3cbdfe"/><stop offset=".7956" stop-color="#4ab0fe"/><stop offset="1" stop-color="#4facfe"/></linearGradient><path d="m472 152v-72c0-22.054688-17.945312-40-40-40h-352c-22.054688 0-40 17.945312-40 40v172c0 22.054688 17.945312 40 40 40h352c22.054688 0 40-17.945312 40-40 0-11.046875 8.953125-20 20-20s20 8.953125 20 20c0 44.113281-35.886719 80-80 80h-352c-44.113281 0-80-35.886719-80-80v-172c0-44.113281 35.886719-80 80-80h352c44.113281 0 80 35.886719 80 80v72c0 11.046875-8.953125 20-20 20s-20-8.953125-20-20zm-307 100c11.046875 0 20-8.953125 20-20v-111h27c0 11.046875 8.953125 20 20 20s20-8.953125 20-20v-20c0-11.046875-8.953125-20-20-20h-132c-11.046875 0-20 8.953125-20 20v20c0 11.046875 8.953125 20 20 20s20-8.953125 20-20h25v111c0 11.046875 8.953125 20 20 20zm87 0c11.046875 0 20-8.953125 20-20s-8.953125-20-20-20-20 8.953125-20 20 8.953125 20 20 20zm60-20c0 11.046875 8.953125 20 20 20s20-8.953125 20-20-8.953125-20-20-20-20 8.953125-20 20zm80 0c0 11.046875 8.953125 20 20 20s20-8.953125 20-20-8.953125-20-20-20-20 8.953125-20 20zm0 0" fill="url(#a)"/></svg>