<svg height="512pt" viewBox="0 -24 512 512" width="512pt" xmlns="http://www.w3.org/2000/svg"><path d="m143.78125 7.515625h224.4375v288.5625h-224.4375zm0 0" fill="#f0edef"/><path d="m143.78125 7.515625h24.046875v288.5625h-24.046875zm0 0" fill="#d2cad0"/><path d="m480.4375 151.796875h24.046875v64.125h-24.046875zm0 0" fill="#ffe06f"/><path d="m143.78125 223.9375h224.4375v128.25h-224.4375zm0 0" fill="#867383"/><path d="m336.15625 315.117188c-66.503906 0-124.398438-36.820313-154.4375-91.179688h-37.9375v128.25h224.4375v-39.988281c-10.398438 1.910156-21.113281 2.917969-32.0625 2.917969zm0 0" fill="#685064"/><path d="m432.34375 159.8125h-32.953125c-7.976563 72.136719-69.125 128.25-143.390625 128.25s-135.414062-56.113281-143.390625-128.25h-32.953125l-16.03125 56.109375-48.09375 56.109375v184.359375h480.9375v-184.359375l-48.09375-56.109375zm0 0" fill="#ed8193"/><path d="m95.6875 215.921875 16.03125-56.109375h-32.0625l-16.03125 56.109375-48.09375 56.109375v184.359375h32.0625v-184.359375zm0 0" fill="#e7576f"/><g fill="#867383"><path d="m47.59375 320.125h32.0625v32.0625h-32.0625zm0 0"/><path d="m111.71875 320.125h32.0625v32.0625h-32.0625zm0 0"/><path d="m175.84375 320.125h32.0625v32.0625h-32.0625zm0 0"/><path d="m239.96875 320.125h32.0625v32.0625h-32.0625zm0 0"/><path d="m304.09375 320.125h32.0625v32.0625h-32.0625zm0 0"/><path d="m368.21875 320.125h32.0625v32.0625h-32.0625zm0 0"/><path d="m432.34375 320.125h32.0625v32.0625h-32.0625zm0 0"/><path d="m79.65625 384.25h32.0625v32.0625h-32.0625zm0 0"/><path d="m143.78125 384.25h32.0625v32.0625h-32.0625zm0 0"/><path d="m207.90625 384.25h96.1875v32.0625h-96.1875zm0 0"/><path d="m336.15625 384.25h32.0625v32.0625h-32.0625zm0 0"/><path d="m400.28125 384.25h32.0625v32.0625h-32.0625zm0 0"/></g><path d="m215.921875 167.828125h80.15625v32.0625h-80.15625zm0 0" fill="#ffe06f"/><path d="m175.84375 55.109375h96.1875c4.152344 0 7.515625-3.367187 7.515625-7.515625 0-4.152344-3.363281-7.515625-7.515625-7.515625h-96.1875c-4.152344 0-7.515625 3.363281-7.515625 7.515625 0 4.148438 3.363281 7.515625 7.515625 7.515625zm0 0"/><path d="m304.09375 55.109375h32.0625c4.152344 0 7.515625-3.367187 7.515625-7.515625 0-4.152344-3.363281-7.515625-7.515625-7.515625h-32.0625c-4.152344 0-7.515625 3.363281-7.515625 7.515625 0 4.148438 3.363281 7.515625 7.515625 7.515625zm0 0"/><path d="m175.84375 87.171875h40.078125c4.148437 0 7.515625-3.367187 7.515625-7.515625 0-4.152344-3.367188-7.515625-7.515625-7.515625h-40.078125c-4.152344 0-7.515625 3.363281-7.515625 7.515625 0 4.148438 3.363281 7.515625 7.515625 7.515625zm0 0"/><path d="m336.15625 72.140625h-88.171875c-4.148437 0-7.515625 3.363281-7.515625 7.515625 0 4.148438 3.367188 7.515625 7.515625 7.515625h88.171875c4.152344 0 7.515625-3.367187 7.515625-7.515625 0-4.152344-3.363281-7.515625-7.515625-7.515625zm0 0"/><path d="m175.84375 119.234375h104.203125c4.152344 0 7.515625-3.367187 7.515625-7.515625 0-4.152344-3.363281-7.515625-7.515625-7.515625h-104.203125c-4.152344 0-7.515625 3.363281-7.515625 7.515625 0 4.148438 3.363281 7.515625 7.515625 7.515625zm0 0"/><path d="m504.484375 144.28125h-24.046875c-4.148438 0-7.515625 3.363281-7.515625 7.515625v24.546875h-28.039063l-5.3125-18.597656c-.921874-3.226563-3.871093-5.449219-7.226562-5.449219h-8.515625v-24.546875c0-4.152344-3.363281-7.515625-7.515625-7.515625h-40.578125v-112.71875c0-4.152344-3.363281-7.515625-7.515625-7.515625h-224.4375c-4.152344 0-7.515625 3.363281-7.515625 7.515625v112.71875h-40.578125c-4.152344 0-7.515625 3.363281-7.515625 7.515625v24.546875h-8.515625c-3.355469 0-6.304688 2.226563-7.226562 5.449219l-5.3125 18.597656h-28.039063v-77.542969l21.84375-21.847656c2.933594-2.933594 2.933594-7.691406 0-10.625-2.933594-2.9375-7.691406-2.9375-10.625 0l-24.046875 24.046875c-1.410156 1.40625-2.203125 3.320312-2.203125 5.3125v80.65625h-16.53125c-4.152344 0-7.515625 3.367188-7.515625 7.515625s3.363281 7.515625 7.515625 7.515625h55.308594l-5.972657 20.902344-47.027343 54.863281c-1.167969 1.363281-1.808594 3.097656-1.808594 4.890625v184.359375c0 4.152344 3.363281 7.515625 7.515625 7.515625h397.777344c4.148437 0 7.511718-3.363281 7.511718-7.515625 0-4.148437-3.363281-7.515625-7.511718-7.515625h-390.261719v-174.0625l46.28125-54c.707031-.824219 1.222656-1.785156 1.519531-2.828125l14.476563-50.65625h20.703125c11.414062 73.578125 74.734375 128.25 149.972656 128.25s138.558594-54.671875 149.972656-128.25h20.703125l14.472657 50.660156c.296874 1.039063.816406 2.003907 1.523437 2.824219l46.28125 54v174.0625h-40.578125c-4.148438 0-7.515625 3.367188-7.515625 7.515625 0 4.152344 3.367187 7.515625 7.515625 7.515625h48.09375c4.152344 0 7.515625-3.363281 7.515625-7.515625v-184.359375c0-1.792969-.640625-3.527344-1.808594-4.890625l-47.027343-54.863281-5.972657-20.902344h23.746094v24.546875c0 4.148437 3.367187 7.515625 7.515625 7.515625h24.046875c4.152344 0 7.515625-3.367188 7.515625-7.515625v-64.125c0-4.152344-3.363281-7.515625-7.515625-7.515625zm-143.78125-129.25v161.3125h-57.109375v-8.515625c0-4.152344-3.363281-7.515625-7.515625-7.515625h-80.15625c-4.148437 0-7.515625 3.363281-7.515625 7.515625v8.515625h-57.109375v-161.3125zm15.03125 176.34375h8.550781c-2.394531 6.488281-5.253906 12.734375-8.550781 18.699219zm-15.03125 25.046875h-209.40625v-25.046875h57.109375v8.515625c0 4.148437 3.367188 7.515625 7.515625 7.515625h80.15625c4.152344 0 7.515625-3.367188 7.515625-7.515625v-8.515625h57.109375zm-232.988281-25.046875h8.550781v18.699219c-3.296875-5.964844-6.15625-12.210938-8.550781-18.699219zm95.722656 1v-17.03125h65.125v17.03125zm-120.234375-40.078125v-17.03125h33.0625v41.078125h-13.128906c-1.371094-5.648438-2.402344-11.4375-3.058594-17.355469-.421875-3.808593-3.636719-6.691406-7.46875-6.691406zm152.796875 128.25c-41.800781 0-79.515625-18.734375-104.703125-48.640625v-.453125h209.433594c.007812.128906.015625.257813.03125.386719-25.1875 29.945312-62.925781 48.707031-104.761719 48.707031zm143.390625-128.25c-3.832031 0-7.046875 2.882813-7.46875 6.691406-.65625 5.917969-1.6875 11.707031-3.058594 17.355469h-13.128906v-41.078125h33.0625v17.03125zm97.578125 56.109375h-9.015625v-49.09375h9.015625zm0 0"/><path d="m87.171875 352.1875v-32.0625c0-4.148438-3.367187-7.515625-7.515625-7.515625h-32.0625c-4.152344 0-7.515625 3.367187-7.515625 7.515625v32.0625c0 4.152344 3.363281 7.515625 7.515625 7.515625h32.0625c4.148438 0 7.515625-3.363281 7.515625-7.515625zm-15.03125-7.515625h-17.03125v-17.03125h17.03125zm0 0"/><path d="m151.296875 352.1875v-32.0625c0-4.148438-3.367187-7.515625-7.515625-7.515625h-32.0625c-4.152344 0-7.515625 3.367187-7.515625 7.515625v32.0625c0 4.152344 3.363281 7.515625 7.515625 7.515625h32.0625c4.148438 0 7.515625-3.363281 7.515625-7.515625zm-15.03125-7.515625h-17.03125v-17.03125h17.03125zm0 0"/><path d="m215.421875 352.1875v-32.0625c0-4.148438-3.367187-7.515625-7.515625-7.515625h-32.0625c-4.152344 0-7.515625 3.367187-7.515625 7.515625v32.0625c0 4.152344 3.363281 7.515625 7.515625 7.515625h32.0625c4.148438 0 7.515625-3.363281 7.515625-7.515625zm-15.03125-7.515625h-17.03125v-17.03125h17.03125zm0 0"/><path d="m272.03125 359.703125c4.152344 0 7.515625-3.363281 7.515625-7.515625v-32.0625c0-4.148438-3.363281-7.515625-7.515625-7.515625h-32.0625c-4.148438 0-7.515625 3.367187-7.515625 7.515625v32.0625c0 4.152344 3.367187 7.515625 7.515625 7.515625zm-24.546875-32.0625h17.03125v17.03125h-17.03125zm0 0"/><path d="m343.671875 352.1875v-32.0625c0-4.148438-3.363281-7.515625-7.515625-7.515625h-32.0625c-4.152344 0-7.515625 3.367187-7.515625 7.515625v32.0625c0 4.152344 3.363281 7.515625 7.515625 7.515625h32.0625c4.152344 0 7.515625-3.363281 7.515625-7.515625zm-15.03125-7.515625h-17.03125v-17.03125h17.03125zm0 0"/><path d="m407.796875 352.1875v-32.0625c0-4.148438-3.363281-7.515625-7.515625-7.515625h-32.0625c-4.152344 0-7.515625 3.367187-7.515625 7.515625v32.0625c0 4.152344 3.363281 7.515625 7.515625 7.515625h32.0625c4.152344 0 7.515625-3.363281 7.515625-7.515625zm-15.03125-7.515625h-17.03125v-17.03125h17.03125zm0 0"/><path d="m464.40625 359.703125c4.152344 0 7.515625-3.363281 7.515625-7.515625v-32.0625c0-4.148438-3.363281-7.515625-7.515625-7.515625h-32.0625c-4.152344 0-7.515625 3.367187-7.515625 7.515625v32.0625c0 4.152344 3.363281 7.515625 7.515625 7.515625zm-24.546875-32.0625h17.03125v17.03125h-17.03125zm0 0"/><path d="m79.65625 423.828125h32.0625c4.148438 0 7.515625-3.363281 7.515625-7.515625v-32.0625c0-4.148438-3.367187-7.515625-7.515625-7.515625h-32.0625c-4.152344 0-7.515625 3.367187-7.515625 7.515625v32.0625c0 4.152344 3.363281 7.515625 7.515625 7.515625zm7.515625-32.0625h17.03125v17.03125h-17.03125zm0 0"/><path d="m143.78125 423.828125h32.0625c4.148438 0 7.515625-3.363281 7.515625-7.515625v-32.0625c0-4.148438-3.367187-7.515625-7.515625-7.515625h-32.0625c-4.152344 0-7.515625 3.367187-7.515625 7.515625v32.0625c0 4.152344 3.363281 7.515625 7.515625 7.515625zm7.515625-32.0625h17.03125v17.03125h-17.03125zm0 0"/><path d="m207.90625 423.828125h96.1875c4.152344 0 7.515625-3.363281 7.515625-7.515625v-32.0625c0-4.148438-3.363281-7.515625-7.515625-7.515625h-96.1875c-4.148438 0-7.515625 3.367187-7.515625 7.515625v32.0625c0 4.152344 3.367187 7.515625 7.515625 7.515625zm7.515625-32.0625h81.15625v17.03125h-81.15625zm0 0"/><path d="m336.15625 423.828125h32.0625c4.152344 0 7.515625-3.363281 7.515625-7.515625v-32.0625c0-4.148438-3.363281-7.515625-7.515625-7.515625h-32.0625c-4.152344 0-7.515625 3.367187-7.515625 7.515625v32.0625c0 4.152344 3.363281 7.515625 7.515625 7.515625zm7.515625-32.0625h17.03125v17.03125h-17.03125zm0 0"/><path d="m432.34375 376.734375h-32.0625c-4.152344 0-7.515625 3.367187-7.515625 7.515625v32.0625c0 4.152344 3.363281 7.515625 7.515625 7.515625h32.0625c4.152344 0 7.515625-3.363281 7.515625-7.515625v-32.0625c0-4.148438-3.363281-7.515625-7.515625-7.515625zm-7.515625 32.0625h-17.03125v-17.03125h17.03125zm0 0"/></svg>