<?xml version="1.0" encoding="iso-8859-1"?>
<!-- Generator: Adobe Illustrator 19.0.0, SVG Export Plug-In . SVG Version: 6.00 Build 0)  -->
<svg version="1.1" id="Layer_1" xmlns="http://www.w3.org/2000/svg" xmlns:xlink="http://www.w3.org/1999/xlink" x="0px" y="0px"
	 viewBox="0 0 512 512" style="enable-background:new 0 0 512 512;" xml:space="preserve">
<path style="fill:#E4E08E;" d="M501.93,184.713C471.057,78.018,372.645,0,256,0C114.616,0,0,114.616,0,256s114.616,256,256,256
	c1.838,0,3.667-0.031,5.496-0.07L501.93,184.713z"/>
<path style="fill:#A7CB5C;" d="M512,256c0-24.74-3.522-48.657-10.07-71.287l-95.669-95.669L128,122.435l-22.261,44.522
	l177.132,177.132l-110.349,78.868l88.974,88.974C400.342,509.005,512,395.548,512,256z"/>
<polygon style="fill:#092A40;" points="256,89.043 233.739,256 256,422.957 339.478,422.957 339.478,400.696 294.957,378.435 
	294.957,144.696 384,144.696 384,166.957 406.261,166.957 406.261,89.043 "/>
<polygon style="fill:#1B444F;" points="105.739,89.043 105.739,166.957 128,166.957 128,144.696 217.043,144.696 217.043,378.435 
	172.522,400.696 172.522,422.957 256,422.957 256,89.043 "/>
<rect x="244.87" y="144.696" style="fill:#395D74;" width="22.261" height="233.739"/>
<g>
</g>
<g>
</g>
<g>
</g>
<g>
</g>
<g>
</g>
<g>
</g>
<g>
</g>
<g>
</g>
<g>
</g>
<g>
</g>
<g>
</g>
<g>
</g>
<g>
</g>
<g>
</g>
<g>
</g>
</svg>
